# xmcd
#
# Track frame offsets: 
#        183
#        16720
#        38983
#        57500
#        79018
#        100178
#        117588
#        137865
#        156835
#        174343
#
# Disc length: 2519 seconds
#
# Revision: 2
# Processed by: cddbd v1.5.2PL0 Copyright (c) Steve Scherf et al.
# Submitted via: ExactAudioCopy v1.0b3
#
DISCID=7d09d50a
DTITLE=Staple Singers - Be Altitude: Respect Yourself [MFSL remaster]
DYEAR=1972
DGENRE=Soul
TTITLE0=This World
TTITLE1=Respect Yourself
TTITLE2=Name the Missing Word
TTITLE3=I'll Take You There
TTITLE4=This Old Town
TTITLE5=We the People
TTITLE6=Are You Sure
TTITLE7=Who Do You Think You Are (Jesus Christ Superstar)?
TTITLE8=I'm Just Another Soldier
TTITLE9=Who
EXTD=
EXTT0=
EXTT1=
EXTT2=
EXTT3=
EXTT4=
EXTT5=
EXTT6=
EXTT7=
EXTT8=
EXTT9=
PLAYORDER=
